# xmcd
# Copyright (C) 1995-1998 Ti Kan
#
# Track frame offsets:
#       150
#       15172
#       27897
#       45182
#       65153
#       81639
#       103697
#       126136
#       138685
#       153888
#       172669
#       185566
#       196074
#       214535
#
# Disc length: 3061 seconds
#
# Revision: 2
# Processed by: cddbd v1.5.2PL0 Copyright (c) Steve Scherf et al.
# Submitted via: CD-Transfer v1.0
#
DISCID=b10bf30e
DTITLE=Deteil - Nur Du !
DYEAR=2007
DGENRE=
TTITLE0=Weder Fesch No Vogu
TTITLE1=Tanze
TTITLE2=Stalker
TTITLE3=Held
TTITLE4=Gleisgänger
TTITLE5=E D Höll Ond Zrog
TTITLE6=Nur Du
TTITLE7=Chräbs
TTITLE8=Nach Em Räge Schiint D Sonne
TTITLE9=Schtorm
TTITLE10=Schtar
TTITLE11=I Lache
TTITLE12=Virus
TTITLE13=Fertig
EXTD=
EXTT0=
EXTT1=
EXTT2=
EXTT3=
EXTT4=
EXTT5=
EXTT6=
EXTT7=
EXTT8=
EXTT9=
EXTT10=
EXTT11=
EXTT12=
EXTT13=
PLAYORDER=
